<mxfile host="app.diagrams.net" modified="2021-09-13T23:39:24.702Z" agent="5.0 (Windows NT 10.0; Win64; x64) AppleWebKit/537.36 (KHTML, like Gecko) Chrome/93.0.4577.63 Safari/537.36" etag="apn69-aF9lLmtrsS7p6k" version="15.0.4" type="github">
  <diagram id="0xHIqHZOxcj8_EQjnsW0" name="Page-1">
    <mxGraphModel dx="1422" dy="762" grid="1" gridSize="10" guides="1" tooltips="1" connect="1" arrows="1" fold="1" page="1" pageScale="1" pageWidth="850" pageHeight="1100" math="0" shadow="0">
      <root>
        <mxCell id="0" />
        <mxCell id="1" parent="0" />
        <mxCell id="wav5qwwjEtvwP0gEGbQv-5" value="" style="whiteSpace=wrap;html=1;aspect=fixed;" vertex="1" parent="1">
          <mxGeometry x="80" y="330" width="340" height="340" as="geometry" />
        </mxCell>
        <mxCell id="wav5qwwjEtvwP0gEGbQv-6" value="" style="whiteSpace=wrap;html=1;aspect=fixed;" vertex="1" parent="1">
          <mxGeometry x="280" y="20" width="210" height="210" as="geometry" />
        </mxCell>
        <mxCell id="wav5qwwjEtvwP0gEGbQv-7" value="&lt;b&gt;&lt;font style=&quot;font-size: 18px&quot;&gt;System&lt;/font&gt;&lt;/b&gt;" style="text;html=1;strokeColor=none;fillColor=none;align=center;verticalAlign=middle;whiteSpace=wrap;rounded=0;" vertex="1" parent="1">
          <mxGeometry x="170" y="330" width="160" height="40" as="geometry" />
        </mxCell>
        <mxCell id="wav5qwwjEtvwP0gEGbQv-8" value="&lt;font style=&quot;font-size: 18px&quot;&gt;&lt;b&gt;Customer&lt;/b&gt;&lt;/font&gt;" style="text;html=1;strokeColor=none;fillColor=none;align=center;verticalAlign=middle;whiteSpace=wrap;rounded=0;" vertex="1" parent="1">
          <mxGeometry x="330" y="30" width="110" height="10" as="geometry" />
        </mxCell>
        <mxCell id="wav5qwwjEtvwP0gEGbQv-9" value="" style="endArrow=classic;html=1;exitX=0.5;exitY=1;exitDx=0;exitDy=0;entryX=0.894;entryY=0;entryDx=0;entryDy=0;entryPerimeter=0;" edge="1" parent="1" source="wav5qwwjEtvwP0gEGbQv-6" target="wav5qwwjEtvwP0gEGbQv-5">
          <mxGeometry width="50" height="50" relative="1" as="geometry">
            <mxPoint x="270" y="300" as="sourcePoint" />
            <mxPoint x="385" y="320" as="targetPoint" />
          </mxGeometry>
        </mxCell>
      </root>
    </mxGraphModel>
  </diagram>
</mxfile>
